# xmcd CD database file
#
# Track frame offsets:
#	150
#	12075
#	24352
#	36895
#	48565
#	60990
#	73562
#	85970
#	98412
#	110982
#
# Disc length: 1644 seconds
#
# Revision: 3
# Processed by: cddbd v1.5.1PL0 Copyright (c) Steve Scherf et al.
# Submitted via: CDex 1.50beta10
#
DISCID=77066a0a
DTITLE=Various Artist - MGP 2005
DYEAR=2005
DGENRE=Pop
TTITLE0=Venindetanker - Nanna and Annisette
TTITLE1=Musikken - Marieke
TTITLE2=Fest her - Lucas
TTITLE3=Jeg ka' nemlig godt li' dig - Jeans
TTITLE4=Et stjerneskud - Karoline and Zoe
TTITLE5=Supermand - L.B.S.
TTITLE6=Kære fru lærer - Signe K.
TTITLE7=Du må forstå - TWIZ
TTITLE8=Sommer og sol - Julia
TTITLE9=Shake Shake Shake - Nicolai
EXTD=YEAR: 2005
EXTT0=
EXTT1=
EXTT2=
EXTT3=
EXTT4=
EXTT5=
EXTT6=
EXTT7=
EXTT8=
EXTT9=
PLAYORDER=
